PathFileType  4	(X/Y/Z) C:\PlaceHolderFilePath\
DataRate	CameraRate	NumFrames	NumMarkers	Units	OrigDataRate	OrigDataStartFrame	OrigNumFrames
  240.0		  240.0		   4		     47	     mm	  240.0	      299	   2384
Frame#	Time	R_acr			L_acr			back_T			back_mid			back_B			R_asis			L_asis			R_psis			L_psis			R_ilium			L_ilium			R_thigh_TA			R_thigh_TP			R_thigh_BA			R_thigh_BP			R_kneejoint_LA			R_tibtub			R_shank_TA			R_shank_TP			R_shank_BA			R_shank_BP			R_fibula			R_ankle_LA			R_heel_T			R_heel_LA			R_heel_B			R_latfoot			R_met_5			R_toe			L_thigh_TA			L_thigh_TP			L_thigh_BA			L_thigh_BP			L_kneejoint_LA			L_tibtub			L_shank_TA			L_shank_TP			L_shank_BA			L_shank_BP			L_fibula			L_ankle_LA			L_heel_T			L_heel_LA			L_heel_B			L_latfoot			L_met_5			L_toe			
		X1	Y1	Z1	X2	Y2	Z2	X3	Y3	Z3	X4	Y4	Z4	X5	Y5	Z5	X6	Y6	Z6	X7	Y7	Z7	X8	Y8	Z8	X9	Y9	Z9	X10	Y10	Z10	X11	Y11	Z11	X12	Y12	Z12	X13	Y13	Z13	X14	Y14	Z14	X15	Y15	Z15	X16	Y16	Z16	X17	Y17	Z17	X18	Y18	Z18	X19	Y19	Z19	X20	Y20	Z20	X21	Y21	Z21	X22	Y22	Z22	X23	Y23	Z23	X24	Y24	Z24	X25	Y25	Z25	X26	Y26	Z26	X27	Y27	Z27	X28	Y28	Z28	X29	Y29	Z29	X30	Y30	Z30	X31	Y31	Z31	X32	Y32	Z32	X33	Y33	Z33	X34	Y34	Z34	X35	Y35	Z35	X36	Y36	Z36	X37	Y37	Z37	X38	Y38	Z38	X39	Y39	Z39	X40	Y40	Z40	X41	Y41	Z41	X42	Y42	Z42	X43	Y43	Z43	X44	Y44	Z44	X45	Y45	Z45	X46	Y46	Z46	X47	Y47	Z47	

299	1.241670	865.279000	1577.573000	819.715000	849.618000	1574.377000	480.008000	730.511000	1325.895000	660.322000	736.519000	1258.553000	630.817000	743.972000	1225.299000	698.573000	940.591000	1058.115000	783.143000	958.725000	1052.984000	540.032000	743.655000	1098.773000	694.499000	750.349000	1089.730000	595.506000	738.404000	1065.630000	758.748000	760.556000	1048.134000	539.443000	882.740000	715.461000	821.230000	806.911000	716.592000	820.595000	887.611000	646.724000	805.512000	808.091000	648.483000	809.040000	813.418000	515.763000	787.787000	837.791000	442.566000	739.077000	758.065000	385.481000	790.927000	691.807000	416.048000	797.918000	715.973000	331.972000	782.511000	667.084000	368.139000	790.241000	601.713000	237.929000	750.659000	539.316000	148.470000	735.239000	473.676000	142.078000	694.581000	470.220000	97.782000	727.975000	452.134000	96.075000	686.658000	588.956000	79.865000	756.146000	624.773000	37.390000	774.662000	740.360000	62.351000	708.976000	1106.069000	793.896000	512.103000	1046.537000	750.078000	493.755000	1143.082000	734.284000	520.918000	1081.468000	687.989000	508.457000	1141.734000	588.930000	534.507000	1153.874000	519.552000	580.889000	1045.382000	508.310000	520.654000	997.419000	558.558000	532.988000	992.401000	467.921000	527.591000	958.705000	523.520000	535.841000	861.029000	399.266000	550.455000	779.237000	342.641000	553.253000	738.927000	379.441000	596.099000	712.148000	347.181000	559.424000	692.403000	359.542000	594.882000	770.664000	268.737000	535.813000	784.875000	198.782000	515.896000	883.032000	132.330000	576.549000
300	1.245830	866.826000	1581.574000	818.653000	847.417000	1577.223000	480.005000	731.395000	1328.358000	662.434000	737.299000	1261.127000	632.873000	745.706000	1227.799000	700.460000	941.269000	1059.202000	783.047000	959.793000	1056.233000	539.618000	744.468000	1101.015000	694.092000	750.591000	1092.988000	595.244000	738.905000	1067.603000	758.104000	761.384000	1051.672000	538.537000	875.933000	716.983000	819.828000	800.339000	719.821000	819.488000	879.257000	648.000000	804.004000	799.763000	651.553000	807.670000	801.690000	518.741000	786.863000	825.028000	444.745000	738.200000	745.254000	388.899000	790.510000	679.257000	419.955000	797.375000	702.758000	335.520000	782.405000	654.115000	372.123000	789.926000	588.116000	241.909000	750.775000	525.077000	152.816000	735.554000	459.936000	148.052000	695.164000	455.398000	103.739000	728.545000	437.211000	102.622000	687.221000	573.637000	82.121000	756.367000	607.886000	37.796000	774.678000	723.249000	61.967000	708.655000	1108.976000	799.976000	512.135000	1050.044000	755.663000	493.325000	1146.470000	740.781000	521.418000	1085.396000	693.784000	508.579000	1146.656000	594.767000	535.098000	1160.845000	525.670000	581.380000	1052.808000	510.222000	521.175000	1002.737000	558.488000	533.493000	1001.576000	467.602000	528.180000	965.486000	521.770000	536.267000	873.104000	393.538000	551.069000	793.726000	333.583000	554.180000	751.680000	368.337000	597.021000	726.595000	334.951000	560.358000	706.181000	346.148000	595.923000	788.582000	259.403000	536.192000	806.074000	190.235000	515.782000	907.418000	128.321000	575.872000
301	1.250000	868.265000	1585.497000	817.400000	845.293000	1579.976000	480.131000	732.386000	1330.814000	664.622000	738.230000	1263.666000	635.003000	747.643000	1230.214000	702.260000	941.856000	1060.240000	783.137000	959.965000	1059.708000	539.449000	745.442000	1103.394000	693.588000	752.185000	1095.859000	594.737000	739.498000	1069.692000	757.378000	762.255000	1055.251000	537.589000	869.441000	718.536000	818.329000	794.094000	723.382000	818.443000	871.058000	649.688000	802.389000	791.702000	654.910000	806.332000	790.622000	522.055000	785.989000	812.342000	447.325000	737.311000	732.800000	392.588000	790.154000	666.942000	424.082000	796.896000	689.835000	339.492000	782.285000	641.437000	376.339000	789.699000	574.737000	246.250000	750.819000	511.224000	157.452000	736.061000	446.244000	154.484000	695.844000	441.036000	109.982000	729.066000	422.767000	109.566000	687.764000	558.488000	84.463000	756.623000	591.252000	38.227000	774.703000	706.362000	61.793000	708.634000	1111.685000	805.973000	512.094000	1053.171000	761.203000	492.898000	1149.416000	747.115000	521.901000	1088.893000	699.639000	508.559000	1151.148000	600.474000	535.713000	1167.436000	531.720000	581.826000	1059.962000	511.951000	521.629000	1007.831000	558.123000	534.095000	1010.577000	467.243000	528.508000	972.072000	519.684000	536.860000	885.357000	387.605000	551.961000	808.627000	324.340000	555.131000	765.084000	356.907000	598.279000	741.351000	322.667000	561.326000	720.579000	332.642000	597.147000	806.757000	250.213000	536.456000	827.349000	182.031000	515.724000	931.908000	124.952000	574.930000
302	1.254170	869.586000	1589.600000	816.149000	843.278000	1582.804000	480.172000	733.083000	1333.522000	666.707000	739.699000	1266.358000	637.458000	749.693000	1232.758000	704.092000	942.520000	1061.504000	783.258000	960.569000	1063.093000	539.107000	746.521000	1105.811000	693.022000	753.108000	1098.865000	594.347000	740.242000	1071.892000	756.743000	763.115000	1058.842000	536.751000	863.062000	720.310000	816.887000	787.836000	726.943000	817.085000	863.075000	651.430000	800.880000	783.632000	658.627000	805.060000	779.579000	525.802000	785.089000	800.230000	450.317000	736.477000	720.475000	396.556000	790.106000	655.052000	428.545000	796.553000	677.312000	343.791000	782.287000	629.137000	381.069000	789.334000	561.851000	250.716000	750.930000	497.897000	161.988000	736.499000	433.665000	160.948000	696.597000	427.109000	116.487000	729.633000	408.918000	116.767000	688.035000	543.756000	87.115000	756.985000	574.796000	39.123000	774.724000	689.675000	61.334000	708.611000	1113.988000	811.842000	512.004000	1055.961000	766.694000	492.539000	1152.053000	753.206000	522.389000	1091.719000	705.204000	509.049000	1155.093000	606.021000	536.188000	1173.545000	537.561000	582.206000	1066.785000	513.488000	522.157000	1012.681000	557.421000	534.689000	1019.411000	466.724000	529.053000	978.945000	517.271000	537.606000	897.599000	381.745000	552.556000	822.832000	315.367000	555.851000	778.852000	345.409000	599.680000	756.563000	310.346000	562.650000	735.573000	318.997000	598.597000	825.250000	241.233000	536.925000	849.166000	174.072000	515.739000	956.366000	121.785000	573.877000
